HIERARCHY
ROOT Hips
{
	OFFSET 0.000000 0.000000 0.000000
	CHANNELS 6 Xposition Yposition Zposition Zrotation Yrotation Xrotation 
	JOINT LHipJoint
	{
		OFFSET 0.000000 0.000000 0.000000
		CHANNELS 3 Zrotation Yrotation Xrotation
		JOINT LeftUpLeg
		{
			OFFSET 1.363060 -1.794630 0.839290
			CHANNELS 3 Zrotation Yrotation Xrotation
			JOINT LeftLeg
			{
				OFFSET 2.448110 -6.726130 0.000000
				CHANNELS 3 Zrotation Yrotation Xrotation
				JOINT LeftFoot
				{
					OFFSET 2.562200 -7.039590 0.000000
					CHANNELS 3 Zrotation Yrotation Xrotation
					JOINT LeftToeBase
					{
						OFFSET 0.157640 -0.433110 2.322550
						CHANNELS 3 Zrotation Yrotation Xrotation
						End Site
						{
							OFFSET 0.000000 0.000000 0.000000
						}
					}
				}
			}
		}
	}
	JOINT RHipJoint
	{
		OFFSET 0.000000 0.000000 0.000000
		CHANNELS 3 Zrotation Yrotation Xrotation
		JOINT RightUpLeg
		{
			OFFSET -1.305520 -1.794630 0.839290
			CHANNELS 3 Zrotation Yrotation Xrotation
			JOINT RightLeg
			{
				OFFSET -2.542530 -6.985550 0.000000
				CHANNELS 3 Zrotation Yrotation Xrotation
				JOINT RightFoot
				{
					OFFSET -2.568260 -7.056230 0.000000
					CHANNELS 3 Zrotation Yrotation Xrotation
					JOINT RightToeBase
					{
						OFFSET -0.164730 -0.452590 2.363150
						CHANNELS 3 Zrotation Yrotation Xrotation
						End Site
						{
							OFFSET 0.000000 0.000000 0.000000
						}
					}
				}
			}
		}
	}
	JOINT LowerBack
	{
		OFFSET 0.000000 0.000000 0.000000
		CHANNELS 3 Zrotation Yrotation Xrotation
		JOINT Spine
		{
			OFFSET 0.028270 2.035590 -0.193380
			CHANNELS 3 Zrotation Yrotation Xrotation
			JOINT Spine1
			{
				OFFSET 0.056720 2.048850 -0.042750
				CHANNELS 3 Zrotation Yrotation Xrotation
				JOINT Neck
				{
					OFFSET 0.000000 0.000000 0.000000
					CHANNELS 3 Zrotation Yrotation Xrotation
					JOINT Neck1
					{
						OFFSET -0.054170 1.746240 0.172020
						CHANNELS 3 Zrotation Yrotation Xrotation
						JOINT Head
						{
							OFFSET 0.104070 1.761360 -0.123970
							CHANNELS 3 Zrotation Yrotation Xrotation
							End Site
							{
								OFFSET 0.000000 0.000000 0.000000
							}
						}
					}
				}
				JOINT LeftShoulder
				{
					OFFSET 0.000000 0.000000 0.000000
					CHANNELS 3 Zrotation Yrotation Xrotation
					JOINT LeftArm
					{
						OFFSET 3.362410 1.200890 -0.311210
						CHANNELS 3 Zrotation Yrotation Xrotation
						JOINT LeftForeArm
						{
							OFFSET 4.983000 -0.000000 -0.000000
							CHANNELS 3 Zrotation Yrotation Xrotation
							JOINT LeftHand
							{
								OFFSET 3.483560 -0.000000 -0.000000
								CHANNELS 3 Zrotation Yrotation Xrotation
								JOINT LeftFingerBase
								{
									OFFSET 0.000000 0.000000 0.000000
									CHANNELS 3 Zrotation Yrotation Xrotation
									JOINT LeftHandIndex1
									{
										OFFSET 0.715260 -0.000000 -0.000000
										CHANNELS 3 Zrotation Yrotation Xrotation
										End Site
										{
											OFFSET 0.000000 0.000000 0.000000
										}
									}
								}
								JOINT LThumb
								{
									OFFSET 0.000000 0.000000 0.000000
									CHANNELS 3 Zrotation Yrotation Xrotation
									End Site
									{
										OFFSET 0.000000 0.000000 0.000000
									}
								}
							}
						}
					}
				}
				JOINT RightShoulder
				{
					OFFSET 0.000000 0.000000 0.000000
					CHANNELS 3 Zrotation Yrotation Xrotation
					JOINT RightArm
					{
						OFFSET -3.136600 1.374050 -0.404650
						CHANNELS 3 Zrotation Yrotation Xrotation
						JOINT RightForeArm
						{
							OFFSET -5.241900 -0.000000 -0.000000
							CHANNELS 3 Zrotation Yrotation Xrotation
							JOINT RightHand
							{
								OFFSET -3.444170 -0.000000 -0.000000
								CHANNELS 3 Zrotation Yrotation Xrotation
								JOINT RightFingerBase
								{
									OFFSET 0.000000 0.000000 0.000000
									CHANNELS 3 Zrotation Yrotation Xrotation
									JOINT RightHandIndex1
									{
										OFFSET -0.622530 -0.000000 -0.000000
										CHANNELS 3 Zrotation Yrotation Xrotation
										End Site
										{
											OFFSET 0.000000 0.000000 0.000000
										}
									}
								}
								JOINT RThumb
								{
									OFFSET 0.000000 0.000000 0.000000
									CHANNELS 3 Zrotation Yrotation Xrotation
									End Site
									{
										OFFSET 0.000000 0.000000 0.000000
									}
								}
							}
						}
					}
				}
			}
		}
	}
}
MOTION
Frames: 4
Frame Time: 0.008333
9.274808 17.691112 -26.103021 4.296787 7.641317 10.409792 -2.220599 2.081533 4.141938 -20.684888 0.583088 3.054529 -4.172790 -0.712748 3.240158 1.599357 -1.614444 11.135654 0.000436 -0.029987 -0.082342 -0.083866 1.754779 -3.879222 0.511871 22.143131 -32.524736 2.234197 -8.708988 17.379311 2.220826 -9.969202 -7.182636 -0.969150 6.257494 -17.536697 -5.136268 -4.816719 -3.120536 1.351606 -6.064162 -5.389067 6.244325 -3.960881 6.921842 -9.899115 -2.994633 -19.175082 5.511769 -1.676918 9.365074 5.698180 -1.255046 11.964972 -0.807260 -7.962046 -0.375742 -72.615938 -21.842043 43.882348 19.321195 -27.750590 -6.612760 0.177226 1.352460 -10.606320 17.705556 -24.611998 -7.783788 -7.125000 0.000000 0.000000 -7.544546 3.089136 7.190382 -0.079038 7.351156 0.284294 77.407614 -16.821659 30.480551 -12.418773 19.773611 -3.485222 2.650720 1.530230 -13.639374 -26.716733 -15.071745 8.715523 7.125000 0.000000 0.000000 -1.917332 -47.807406 0.133441
9.273099 17.663986 -25.946780 4.494727 7.687984 10.496890 -2.153345 2.111055 4.182286 -20.802813 0.846797 3.395620 -4.152625 -0.738694 3.276890 1.707276 -2.028764 11.303332 0.000482 0.140524 0.386164 -0.144662 1.784878 -3.925948 0.332692 22.039408 -32.825034 2.253112 -8.684087 17.210426 2.133647 -9.753701 -7.162683 -1.134537 6.761848 -19.012763 -5.328344 -4.863495 -3.171474 1.342683 -6.106408 -5.400208 6.271190 -3.986417 6.854606 -9.894144 -2.948493 -19.001374 5.507094 -1.625216 9.261094 5.688501 -1.223787 11.810524 -0.799380 -7.968665 -0.362977 -72.537014 -22.038455 43.977716 19.573581 -27.988937 -6.745090 0.173774 1.354970 -10.788293 17.889844 -24.780989 -7.918425 -7.125000 0.000000 0.000000 -7.448623 2.884116 7.125724 -0.076012 7.346369 0.288991 77.551004 -16.953597 29.619035 -12.112065 19.424375 -3.375314 2.660192 1.494951 -13.032909 -26.575468 -15.025025 8.638583 7.125000 0.000000 0.000000 -1.777870 -47.729349 0.121763
9.270002 17.641993 -25.788460 4.569533 7.642539 10.522379 -2.088574 2.160853 4.229734 -20.799678 1.225270 3.743496 -4.122756 -0.763404 3.330462 1.827441 -2.488368 11.440511 0.000336 0.115407 0.317074 -0.188856 1.784342 -3.973718 0.623175 21.491702 -33.097111 2.273103 -8.671210 17.166862 1.989677 -9.371266 -6.662963 -1.303295 7.227279 -20.392605 -5.410102 -4.881539 -3.251082 1.340781 -6.111683 -5.387375 6.289077 -3.999315 6.929761 -9.877051 -2.916550 -18.941939 5.448012 -1.591519 9.176500 5.637102 -1.203912 11.686540 -0.781179 -7.959699 -0.345996 -72.470865 -22.277337 44.003219 19.822588 -28.231503 -6.875371 0.162457 1.350282 -10.814251 18.162779 -24.790464 -8.056242 -7.125000 0.000000 0.000000 -7.277972 2.830460 6.966940 -0.060854 7.317318 0.300860 77.612211 -16.959638 28.848922 -11.866886 19.169054 -3.330079 2.732613 1.542995 -12.481200 -27.125788 -15.780262 9.283038 7.125000 0.000000 0.000000 -2.298050 -48.712049 0.214005
9.264754 17.623945 -25.633368 4.707902 7.561203 10.474674 -2.017532 2.220901 4.277757 -20.855924 1.650296 4.170795 -4.089124 -0.789180 3.387458 1.938277 -2.946214 11.543594 0.000300 0.110132 0.302521 -0.230305 1.767136 -4.012971 1.066495 20.671228 -33.308056 2.285657 -8.670812 17.207591 1.864020 -9.029304 -6.019828 -1.393289 7.466613 -21.105826 -5.575764 -4.874375 -3.226675 1.336135 -6.084223 -5.374876 6.376360 -4.002866 6.978343 -9.985003 -2.923229 -18.947963 5.430833 -1.563007 9.172380 5.654382 -1.202015 11.669877 -0.766605 -7.949326 -0.342263 -72.496547 -22.525016 44.047260 20.029156 -28.430008 -6.986588 0.161878 1.351555 -10.804384 18.347423 -24.889077 -8.174107 -7.125000 0.000000 0.000000 -7.175507 2.696340 6.884892 -0.070808 7.289945 0.307129 77.569111 -17.153528 28.576908 -11.847706 19.175053 -3.356318 2.787832 1.578979 -12.497008 -27.811952 -16.144377 9.760263 7.125000 0.000000 0.000000 -3.000753 -49.246060 0.317867
